<svg xmlns="http://www.w3.org/2000/svg" fill="" viewBox="0 0 64 64"><g id="Capa_2" data-name="Capa 2"><g id="Capa_1-2" data-name="Capa 1"><path d="M23.86,32.48h-5.2a0,0,0,0,0,0,0v6a0,0,0,0,0,0,0h5.05a3.12,3.12,0,0,0,3.16-2.75A3,3,0,0,0,23.86,32.48Z"/><path d="M26.52,25.94a3.13,3.13,0,0,0-3.16-2.76h-5a0,0,0,0,0,0,0v6a0,0,0,0,0,0,0h5.19A3,3,0,0,0,26.52,25.94Z"/><path d="M42.34,29.34a3.49,3.49,0,0,0-3.71,3.2.16.16,0,0,0,.16.17H46a.16.16,0,0,0,.16-.18A3.63,3.63,0,0,0,42.34,29.34Z"/><path d="M52,0H12A12,12,0,0,0,0,12V52A12,12,0,0,0,12,64H52A12,12,0,0,0,64,52V12A12,12,0,0,0,52,0ZM37.69,21.57a.48.48,0,0,1,.48-.48h8.22a.49.49,0,0,1,.48.48V23.4a.48.48,0,0,1-.48.48H38.17a.47.47,0,0,1-.48-.48ZM32.13,38.23a6.81,6.81,0,0,1-6.5,4.47h-12a0,0,0,0,1,0,0V20.19s0,0,0,0l10.9-.23s6.85-.23,6.85,4.65c0,4.26-2.74,5.51-3.44,5.76,0,0,0,.05,0,.06a4.73,4.73,0,0,1,4.6,5.1A8.13,8.13,0,0,1,32.13,38.23Zm18.23-2.88a.16.16,0,0,1-.16.15H39.33a.17.17,0,0,0-.16.13c-.12.71-.51,4.07,2.78,4.17,2.91.09,3.42-1.48,3.51-2a.15.15,0,0,1,.15-.13h3.94a.16.16,0,0,1,.15.21c-2.53,7.36-11,8.16-14.46,2.17s-.34-14.7,7.68-14.7C50.35,25.39,50.39,34.09,50.36,35.35Z"/></g></g></svg>