<svg xmlns="http://www.w3.org/2000/svg" viewBox="0 0 64 64"><g id="Capa_2" data-name="Capa 2"><g id="Capa_1-2" data-name="Capa 1"><path d="M44.2,15H19.8A4.8,4.8,0,0,0,15,19.8V44.2A4.8,4.8,0,0,0,19.8,49H44.2A4.8,4.8,0,0,0,49,44.2V19.8A4.8,4.8,0,0,0,44.2,15ZM32,43A11,11,0,1,1,43,32,11,11,0,0,1,32,43ZM44.46,22.65a1.79,1.79,0,1,1-.9-2.36A1.79,1.79,0,0,1,44.46,22.65Z"/><path d="M32,23.77A8.23,8.23,0,1,0,40.23,32,8.24,8.24,0,0,0,32,23.77Z"/><path d="M52,0H12A12,12,0,0,0,0,12V52A12,12,0,0,0,12,64H52A12,12,0,0,0,64,52V12A12,12,0,0,0,52,0Zm-.2,44.2a7.61,7.61,0,0,1-7.6,7.6H19.8a7.61,7.61,0,0,1-7.6-7.6V19.8a7.61,7.61,0,0,1,7.6-7.6H44.2a7.61,7.61,0,0,1,7.6,7.6Z"/></g></g></svg>