<svg xmlns="http://www.w3.org/2000/svg" viewBox="0 0 64 64"><g id="Capa_2" data-name="Capa 2"><g id="Capa_1-2" data-name="Capa 1"><path d="M34.47,39.75a2.52,2.52,0,0,1-1.82.81h0a2.54,2.54,0,0,1-1.81-.75L13.74,22.75l-.09-.11V42.73a.54.54,0,0,0,.54.54H49.81a.54.54,0,0,0,.54-.54V22.82Z"/><path d="M52,0H12A12,12,0,0,0,0,12V52A12,12,0,0,0,12,64H52A12,12,0,0,0,64,52V12A12,12,0,0,0,52,0Zm1.07,42.73A3.27,3.27,0,0,1,49.81,46H14.19a3.27,3.27,0,0,1-3.26-3.26V18H53.07Z"/><path d="M15.65,20.8v0L32.6,37.76,48.49,20.82l0-.09H15.7S15.64,20.79,15.65,20.8Z"/></g></g></svg>